<svg width="548" height="204" viewBox="0 0 548 204" fill="none" xmlns="http://www.w3.org/2000/svg">
<g filter="url(#filter0_d_326_85)">
<path d="M68.36 86.2C64.6267 86.2 61.12 85.5467 57.84 84.24C54.5867 82.9067 51.72 80.96 49.24 78.4C46.7867 75.84 44.8667 72.7067 43.48 69C42.0933 65.2667 41.4 61 41.4 56.2C41.4 49.9067 42.5733 44.5333 44.92 40.08C47.2667 35.6 50.48 32.1733 54.56 29.8C58.64 27.4 63.24 26.2 68.36 26.2C75.4533 26.2 81.0667 27.8533 85.2 31.16C89.36 34.44 92.1733 39.0533 93.64 45L83.8 46.56C82.7067 43.1467 80.92 40.4267 78.44 38.4C75.96 36.3467 72.8 35.32 68.96 35.32C65.0933 35.2667 61.88 36.1067 59.32 37.84C56.76 39.5733 54.8267 42.0133 53.52 45.16C52.24 48.3067 51.6 51.9867 51.6 56.2C51.6 60.4133 52.24 64.08 53.52 67.2C54.8 70.2933 56.72 72.7067 59.28 74.44C61.8667 76.1733 65.0933 77.0667 68.96 77.12C71.8667 77.1467 74.4133 76.6267 76.6 75.56C78.7867 74.4667 80.5733 72.8267 81.96 70.64C83.3467 68.4267 84.28 65.6667 84.76 62.36H74.6V54.8H95C95.0533 55.2267 95.0933 55.8533 95.12 56.68C95.1467 57.5067 95.16 58 95.16 58.16C95.16 63.6 94.08 68.44 91.92 72.68C89.7867 76.8933 86.72 80.2 82.72 82.6C78.72 85 73.9333 86.2 68.36 86.2ZM100.794 85V41.8H109.314V52.32L108.274 50.96C108.807 49.52 109.514 48.2133 110.394 47.04C111.3 45.84 112.38 44.8533 113.634 44.08C114.7 43.36 115.874 42.8 117.154 42.4C118.46 41.9733 119.794 41.72 121.154 41.64C122.514 41.5333 123.834 41.5867 125.114 41.8V50.8C123.834 50.4267 122.354 50.3067 120.674 50.44C119.02 50.5733 117.527 51.04 116.194 51.84C114.86 52.56 113.767 53.48 112.914 54.6C112.087 55.72 111.474 57 111.074 58.44C110.674 59.8533 110.474 61.3867 110.474 63.04V85H100.794ZM149.206 86.2C144.832 86.2 140.992 85.2533 137.686 83.36C134.379 81.4667 131.792 78.84 129.926 75.48C128.086 72.12 127.166 68.2533 127.166 63.88C127.166 59.16 128.072 55.0667 129.886 51.6C131.699 48.1067 134.219 45.4 137.446 43.48C140.672 41.56 144.406 40.6 148.646 40.6C153.126 40.6 156.926 41.6533 160.046 43.76C163.192 45.84 165.526 48.7867 167.046 52.6C168.566 56.4133 169.139 60.9067 168.766 66.08H159.206V62.56C159.179 57.8667 158.352 54.44 156.726 52.28C155.099 50.12 152.539 49.04 149.046 49.04C145.099 49.04 142.166 50.2667 140.246 52.72C138.326 55.1467 137.366 58.7067 137.366 63.4C137.366 67.7733 138.326 71.16 140.246 73.56C142.166 75.96 144.966 77.16 148.646 77.16C151.019 77.16 153.059 76.64 154.766 75.6C156.499 74.5333 157.832 73 158.766 71L168.286 73.88C166.632 77.7733 164.072 80.8 160.606 82.96C157.166 85.12 153.366 86.2 149.206 86.2ZM134.326 66.08V58.8H164.046V66.08H134.326ZM186.589 86.2C183.469 86.2 180.829 85.6133 178.669 84.44C176.509 83.24 174.869 81.6533 173.749 79.68C172.656 77.7067 172.109 75.5333 172.109 73.16C172.109 71.08 172.456 69.2133 173.149 67.56C173.843 65.88 174.909 64.44 176.349 63.24C177.789 62.0133 179.656 61.0133 181.949 60.24C183.683 59.68 185.709 59.1733 188.029 58.72C190.376 58.2667 192.909 57.8533 195.629 57.48C198.376 57.08 201.243 56.6533 204.229 56.2L200.789 58.16C200.816 55.1733 200.149 52.9733 198.789 51.56C197.429 50.1467 195.136 49.44 191.909 49.44C189.963 49.44 188.083 49.8933 186.269 50.8C184.456 51.7067 183.189 53.2667 182.469 55.48L173.669 52.72C174.736 49.0667 176.763 46.1333 179.749 43.92C182.763 41.7067 186.816 40.6 191.909 40.6C195.749 40.6 199.123 41.2267 202.029 42.48C204.963 43.7333 207.136 45.7867 208.549 48.64C209.323 50.16 209.789 51.72 209.949 53.32C210.109 54.8933 210.189 56.6133 210.189 58.48V85H201.749V75.64L203.149 77.16C201.203 80.28 198.923 82.5733 196.309 84.04C193.723 85.48 190.483 86.2 186.589 86.2ZM188.509 78.52C190.696 78.52 192.563 78.1333 194.109 77.36C195.656 76.5867 196.883 75.64 197.789 74.52C198.723 73.4 199.349 72.3467 199.669 71.36C200.176 70.1333 200.456 68.7333 200.509 67.16C200.589 65.56 200.629 64.2667 200.629 63.28L203.589 64.16C200.683 64.6133 198.189 65.0133 196.109 65.36C194.029 65.7067 192.243 66.04 190.749 66.36C189.256 66.6533 187.936 66.9867 186.789 67.36C185.669 67.76 184.723 68.2267 183.949 68.76C183.176 69.2933 182.576 69.9067 182.149 70.6C181.749 71.2933 181.549 72.1067 181.549 73.04C181.549 74.1067 181.816 75.0533 182.349 75.88C182.883 76.68 183.656 77.32 184.669 77.8C185.709 78.28 186.989 78.52 188.509 78.52ZM243.523 85C240.67 85.5333 237.87 85.76 235.123 85.68C232.403 85.6267 229.963 85.1333 227.803 84.2C225.643 83.24 224.003 81.7333 222.883 79.68C221.896 77.8133 221.376 75.9067 221.323 73.96C221.27 72.0133 221.243 69.8133 221.243 67.36V29.8H230.843V66.8C230.843 68.5333 230.856 70.0533 230.883 71.36C230.936 72.6667 231.216 73.7333 231.723 74.56C232.683 76.16 234.216 77.0533 236.323 77.24C238.43 77.4267 240.83 77.32 243.523 76.92V85ZM213.403 49.36V41.8H243.523V49.36H213.403ZM288.388 86.2C282.628 86.2 277.695 84.9467 273.588 82.44C269.481 79.9067 266.321 76.3867 264.108 71.88C261.921 67.3733 260.828 62.1467 260.828 56.2C260.828 50.2533 261.921 45.0267 264.108 40.52C266.321 36.0133 269.481 32.5067 273.588 30C277.695 27.4667 282.628 26.2 288.388 26.2C295.028 26.2 300.561 27.8667 304.988 31.2C309.415 34.5067 312.521 38.9733 314.308 44.6L304.588 47.28C303.468 43.52 301.561 40.5867 298.868 38.48C296.175 36.3467 292.681 35.28 288.388 35.28C284.521 35.28 281.295 36.1467 278.708 37.88C276.148 39.6133 274.215 42.0533 272.908 45.2C271.628 48.32 270.975 51.9867 270.948 56.2C270.948 60.4133 271.588 64.0933 272.868 67.24C274.175 70.36 276.121 72.7867 278.708 74.52C281.295 76.2533 284.521 77.12 288.388 77.12C292.681 77.12 296.175 76.0533 298.868 73.92C301.561 71.7867 303.468 68.8533 304.588 65.12L314.308 67.8C312.521 73.4267 309.415 77.9067 304.988 81.24C300.561 84.5467 295.028 86.2 288.388 86.2ZM339.771 86.2C335.451 86.2 331.677 85.2267 328.451 83.28C325.224 81.3333 322.717 78.6533 320.931 75.24C319.171 71.8 318.291 67.8533 318.291 63.4C318.291 58.8667 319.197 54.8933 321.011 51.48C322.824 48.0667 325.344 45.4 328.571 43.48C331.797 41.56 335.531 40.6 339.771 40.6C344.117 40.6 347.904 41.5733 351.131 43.52C354.357 45.4667 356.864 48.16 358.651 51.6C360.437 55.0133 361.331 58.9467 361.331 63.4C361.331 67.88 360.424 71.84 358.611 75.28C356.824 78.6933 354.317 81.3733 351.091 83.32C347.864 85.24 344.091 86.2 339.771 86.2ZM339.771 77.16C343.611 77.16 346.464 75.88 348.331 73.32C350.197 70.76 351.131 67.4533 351.131 63.4C351.131 59.2133 350.184 55.88 348.291 53.4C346.397 50.8933 343.557 49.64 339.771 49.64C337.184 49.64 335.051 50.2267 333.371 51.4C331.717 52.5467 330.491 54.16 329.691 56.24C328.891 58.2933 328.491 60.68 328.491 63.4C328.491 67.5867 329.437 70.9333 331.331 73.44C333.251 75.92 336.064 77.16 339.771 77.16ZM371.504 85V41.12C371.504 40.0267 371.544 38.8267 371.624 37.52C371.704 36.1867 371.93 34.8667 372.304 33.56C372.677 32.2533 373.357 31.0667 374.344 30C375.57 28.64 376.89 27.7067 378.304 27.2C379.744 26.6667 381.157 26.3733 382.544 26.32C383.93 26.24 385.144 26.2 386.184 26.2H391.584V34.04H386.584C384.744 34.04 383.37 34.5067 382.464 35.44C381.584 36.3467 381.144 37.5467 381.144 39.04V85H371.504ZM364.544 49.36V41.8H391.584V49.36H364.544ZM398.424 85V41.12C398.424 40.0267 398.464 38.8267 398.544 37.52C398.624 36.1867 398.85 34.8667 399.224 33.56C399.597 32.2533 400.277 31.0667 401.264 30C402.49 28.64 403.81 27.7067 405.224 27.2C406.664 26.6667 408.077 26.3733 409.464 26.32C410.85 26.24 412.064 26.2 413.104 26.2H418.504V34.04H413.504C411.664 34.04 410.29 34.5067 409.384 35.44C408.504 36.3467 408.064 37.5467 408.064 39.04V85H398.424ZM391.464 49.36V41.8H418.504V49.36H391.464ZM440.609 86.2C436.235 86.2 432.395 85.2533 429.089 83.36C425.782 81.4667 423.195 78.84 421.329 75.48C419.489 72.12 418.569 68.2533 418.569 63.88C418.569 59.16 419.475 55.0667 421.289 51.6C423.102 48.1067 425.622 45.4 428.849 43.48C432.075 41.56 435.809 40.6 440.049 40.6C444.529 40.6 448.329 41.6533 451.449 43.76C454.595 45.84 456.929 48.7867 458.449 52.6C459.969 56.4133 460.542 60.9067 460.169 66.08H450.609V62.56C450.582 57.8667 449.755 54.44 448.129 52.28C446.502 50.12 443.942 49.04 440.449 49.04C436.502 49.04 433.569 50.2667 431.649 52.72C429.729 55.1467 428.769 58.7067 428.769 63.4C428.769 67.7733 429.729 71.16 431.649 73.56C433.569 75.96 436.369 77.16 440.049 77.16C442.422 77.16 444.462 76.64 446.169 75.6C447.902 74.5333 449.235 73 450.169 71L459.689 73.88C458.035 77.7733 455.475 80.8 452.009 82.96C448.569 85.12 444.769 86.2 440.609 86.2ZM425.729 66.08V58.8H455.449V66.08H425.729ZM486.334 86.2C481.96 86.2 478.12 85.2533 474.814 83.36C471.507 81.4667 468.92 78.84 467.054 75.48C465.214 72.12 464.294 68.2533 464.294 63.88C464.294 59.16 465.2 55.0667 467.014 51.6C468.827 48.1067 471.347 45.4 474.574 43.48C477.8 41.56 481.534 40.6 485.774 40.6C490.254 40.6 494.054 41.6533 497.174 43.76C500.32 45.84 502.654 48.7867 504.174 52.6C505.694 56.4133 506.267 60.9067 505.894 66.08H496.334V62.56C496.307 57.8667 495.48 54.44 493.854 52.28C492.227 50.12 489.667 49.04 486.174 49.04C482.227 49.04 479.294 50.2667 477.374 52.72C475.454 55.1467 474.494 58.7067 474.494 63.4C474.494 67.7733 475.454 71.16 477.374 73.56C479.294 75.96 482.094 77.16 485.774 77.16C488.147 77.16 490.187 76.64 491.894 75.6C493.627 74.5333 494.96 73 495.894 71L505.414 73.88C503.76 77.7733 501.2 80.8 497.734 82.96C494.294 85.12 490.494 86.2 486.334 86.2ZM471.454 66.08V58.8H501.174V66.08H471.454Z" fill="white"/>
</g>
<g filter="url(#filter1_d_326_85)">
<path d="M30.4 174L28.9858 175.414L30.3953 176.824L31.8095 175.419L30.4 174ZM11.2 154.8L9.78579 153.386L8.37157 154.8L9.78579 156.214L11.2 154.8ZM30.4 135.6L31.8095 134.181L30.3953 132.776L28.9858 134.186L30.4 135.6ZM36.4 141.56L37.7909 142.997L39.2566 141.579L37.8095 140.141L36.4 141.56ZM22.72 154.8L21.3291 153.363L19.8442 154.8L21.3291 156.237L22.72 154.8ZM36.4 168.04L37.8095 169.459L39.2566 168.021L37.7909 166.603L36.4 168.04ZM31.8142 172.586L12.6142 153.386L9.78579 156.214L28.9858 175.414L31.8142 172.586ZM12.6142 156.214L31.8142 137.014L28.9858 134.186L9.78579 153.386L12.6142 156.214ZM28.9905 137.019L34.9905 142.979L37.8095 140.141L31.8095 134.181L28.9905 137.019ZM35.0091 140.123L21.3291 153.363L24.1109 156.237L37.7909 142.997L35.0091 140.123ZM21.3291 156.237L35.0091 169.477L37.7909 166.603L24.1109 153.363L21.3291 156.237ZM34.9905 166.621L28.9905 172.581L31.8095 175.419L37.8095 169.459L34.9905 166.621ZM67.4556 179.24L66.6972 181.091L66.7063 181.094L66.7154 181.098L67.4556 179.24ZM58.8556 173.4L57.4116 174.784L57.4191 174.792L58.8556 173.4ZM53.0956 164L51.2208 164.696L51.2224 164.701L53.0956 164ZM54.5356 135.08L56.305 136.012L56.3073 136.008L54.5356 135.08ZM64.1756 124.8L65.1813 126.529L65.1897 126.524L64.1756 124.8ZM94.8156 126.16L93.5662 127.722L93.5718 127.726L93.5773 127.731L94.8156 126.16ZM103.256 140L103.569 141.975L105.719 141.634L105.197 139.521L103.256 140ZM93.4156 141.56L91.5109 142.17L92.0343 143.804L93.7288 143.535L93.4156 141.56ZM88.0556 133.4L86.7801 134.941L86.7901 134.949L88.0556 133.4ZM78.5756 130.32L78.548 132.32L78.5618 132.32H78.5756V130.32ZM68.9356 132.84L70.0569 134.496L68.9356 132.84ZM63.1356 140.16L61.2885 139.393L61.2858 139.4L61.283 139.406L63.1356 140.16ZM63.1356 162.2L61.2853 162.959L61.2876 162.965L63.1356 162.2ZM68.8956 169.44L67.7743 171.096L67.7823 171.101L68.8956 169.44ZM78.5756 172.12L78.548 174.12L78.5573 174.12L78.5756 172.12ZM86.2156 170.56L87.0925 172.358L87.1013 172.353L87.1101 172.349L86.2156 170.56ZM91.5756 165.64L93.2647 166.711L93.2705 166.702L91.5756 165.64ZM94.3756 157.36L96.3549 157.647L96.6869 155.36H94.3756V157.36ZM84.2156 157.36H82.2156V159.36H84.2156V157.36ZM84.2156 149.8V147.8H82.2156V149.8H84.2156ZM104.616 149.8L106.6 149.552L106.381 147.8H104.616V149.8ZM104.736 151.68L106.735 151.616V151.616L104.736 151.68ZM101.536 167.68L99.7535 166.772L99.7513 166.777L101.536 167.68ZM92.3356 177.6L93.3646 179.315L92.3356 177.6ZM77.9756 179.2C74.481 179.2 71.227 178.59 68.1958 177.382L66.7154 181.098C70.2443 182.504 74.0035 183.2 77.9756 183.2V179.2ZM68.2141 177.389C65.2196 176.162 62.5829 174.373 60.2921 172.008L57.4191 174.792C60.0884 177.547 63.185 179.651 66.6972 181.091L68.2141 177.389ZM60.2996 172.016C58.055 169.674 56.2714 166.781 54.9688 163.299L51.2224 164.701C52.6932 168.632 54.7496 172.006 57.4116 174.784L60.2996 172.016ZM54.9705 163.304C53.6816 159.834 53.0156 155.81 53.0156 151.2H49.0156C49.0156 156.19 49.7363 160.7 51.2208 164.696L54.9705 163.304ZM53.0156 151.2C53.0156 145.152 54.1431 140.115 56.305 136.012L52.7662 134.148C50.2349 138.952 49.0156 144.661 49.0156 151.2H53.0156ZM56.3073 136.008C58.4922 131.837 61.4504 128.699 65.1813 126.529L63.17 123.071C58.7409 125.648 55.2724 129.363 52.764 134.152L56.3073 136.008ZM65.1897 126.524C68.9374 124.319 73.1821 123.2 77.9756 123.2V119.2C72.5291 119.2 67.5739 120.481 63.1616 123.076L65.1897 126.524ZM77.9756 123.2C84.7691 123.2 89.8917 124.782 93.5662 127.722L96.065 124.598C91.4729 120.925 85.3688 119.2 77.9756 119.2V123.2ZM93.5773 127.731C97.3349 130.693 99.9363 134.894 101.314 140.479L105.197 139.521C103.642 133.213 100.616 128.187 96.0539 124.589L93.5773 127.731ZM102.942 138.025L93.1025 139.585L93.7288 143.535L103.569 141.975L102.942 138.025ZM95.3203 140.95C94.1236 137.214 92.1352 134.151 89.3212 131.851L86.7901 134.949C88.936 136.702 90.521 139.079 91.5109 142.17L95.3203 140.95ZM89.3311 131.859C86.4264 129.454 82.7877 128.32 78.5756 128.32V132.32C82.0435 132.32 84.7249 133.239 86.7802 134.941L89.3311 131.859ZM78.6032 128.32C74.4307 128.263 70.7896 129.169 67.8143 131.184L70.0569 134.496C72.2017 133.044 74.9872 132.271 78.548 132.32L78.6032 128.32ZM67.8143 131.184C64.898 133.158 62.7292 135.924 61.2885 139.393L64.9827 140.927C66.1554 138.103 67.8532 135.988 70.0569 134.496L67.8143 131.184ZM61.283 139.406C59.8854 142.842 59.2156 146.788 59.2156 151.2H63.2156C63.2156 147.185 63.8259 143.771 64.9882 140.914L61.283 139.406ZM59.2156 151.2C59.2156 155.611 59.8852 159.546 61.2853 162.959L64.986 161.441C63.8261 158.614 63.2156 155.216 63.2156 151.2H59.2156ZM61.2876 162.965C62.7044 166.389 64.863 169.125 67.7743 171.096L70.0169 167.784C67.8082 166.288 66.1269 164.198 64.9837 161.435L61.2876 162.965ZM67.7823 171.101C70.7604 173.097 74.3881 174.062 78.548 174.12L78.6032 170.12C75.0298 170.071 72.2042 169.25 70.009 167.779L67.7823 171.101ZM78.5573 174.12C81.7142 174.149 84.5779 173.584 87.0925 172.358L85.3388 168.762C83.48 169.669 81.2504 170.144 78.594 170.12L78.5573 174.12ZM87.1101 172.349C89.6414 171.083 91.6953 169.186 93.2646 166.711L89.8866 164.569C88.6827 166.467 87.1632 167.85 85.3212 168.771L87.1101 172.349ZM93.2705 166.702C94.8398 164.197 95.8457 161.155 96.3549 157.647L92.3964 157.073C91.9456 160.178 91.0848 162.656 89.8808 164.578L93.2705 166.702ZM94.3756 155.36H84.2156V159.36H94.3756V155.36ZM86.2156 157.36V149.8H82.2156V157.36H86.2156ZM84.2156 151.8H104.616V147.8H84.2156V151.8ZM102.631 150.048C102.673 150.381 102.711 150.934 102.737 151.744L106.735 151.616C106.707 150.772 106.665 150.072 106.6 149.552L102.631 150.048ZM102.737 151.744C102.764 152.589 102.776 153.041 102.776 153.16H106.776C106.776 152.959 106.761 152.425 106.735 151.616L102.737 151.744ZM102.776 153.16C102.776 158.33 101.751 162.851 99.7535 166.772L103.318 168.588C105.64 164.029 106.776 158.87 106.776 153.16H102.776ZM99.7513 166.777C97.786 170.658 94.9792 173.681 91.3066 175.885L93.3646 179.315C97.6921 176.719 101.019 173.129 103.32 168.583L99.7513 166.777ZM91.3066 175.885C87.6732 178.065 83.2575 179.2 77.9756 179.2V183.2C83.8404 183.2 88.9981 181.935 93.3646 179.315L91.3066 175.885ZM110.409 180H108.409V182H110.409V180ZM110.409 136.8V134.8H108.409V136.8H110.409ZM118.929 136.8H120.929V134.8H118.929V136.8ZM118.929 147.32L117.341 148.535L120.929 153.228V147.32H118.929ZM117.889 145.96L116.014 145.265L115.631 146.299L116.301 147.175L117.889 145.96ZM120.009 142.04L118.414 140.834L118.409 140.84L120.009 142.04ZM123.249 139.08L124.3 140.782L124.334 140.761L124.368 140.738L123.249 139.08ZM126.769 137.4L127.366 139.309L127.378 139.305L127.39 139.301L126.769 137.4ZM130.769 136.64L130.887 138.637L130.906 138.635L130.926 138.634L130.769 136.64ZM134.729 136.8H136.729V135.106L135.058 134.827L134.729 136.8ZM134.729 145.8L134.169 147.72L136.729 148.467V145.8H134.729ZM130.289 145.44L130.131 143.446L130.129 143.446L130.289 145.44ZM125.809 146.84L126.76 148.6L126.8 148.578L126.838 148.555L125.809 146.84ZM122.529 149.6L120.939 148.388L120.929 148.4L120.92 148.412L122.529 149.6ZM120.689 153.44L122.614 153.985L122.616 153.975L120.689 153.44ZM120.089 180V182H122.089V180H120.089ZM112.409 180V136.8H108.409V180H112.409ZM110.409 138.8H118.929V134.8H110.409V138.8ZM116.929 136.8V147.32H120.929V136.8H116.929ZM120.518 146.105L119.478 144.745L116.301 147.175L117.341 148.535L120.518 146.105ZM119.765 146.655C120.234 145.387 120.85 144.252 121.609 143.24L118.409 140.84C117.408 142.175 116.611 143.653 116.014 145.265L119.765 146.655ZM121.605 143.246C122.366 142.239 123.262 141.422 124.3 140.782L122.199 137.378C120.73 138.284 119.467 139.441 118.414 140.834L121.605 143.246ZM124.368 140.738C125.267 140.131 126.263 139.653 127.366 139.309L126.173 135.491C124.715 135.947 123.365 136.589 122.13 137.422L124.368 140.738ZM127.39 139.301C128.535 138.927 129.7 138.706 130.887 138.637L130.652 134.643C129.119 134.734 127.617 135.019 126.149 135.499L127.39 139.301ZM130.926 138.634C132.132 138.539 133.289 138.587 134.401 138.773L135.058 134.827C133.61 134.586 132.127 134.527 130.613 134.646L130.926 138.634ZM132.729 136.8V145.8H136.729V136.8H132.729ZM135.289 143.88C133.724 143.423 131.992 143.299 130.131 143.446L130.448 147.434C131.947 147.315 133.175 147.43 134.169 147.72L135.289 143.88ZM130.129 143.446C128.189 143.603 126.395 144.156 124.78 145.125L126.838 148.555C127.89 147.924 129.083 147.544 130.45 147.434L130.129 143.446ZM124.859 145.08C123.295 145.925 121.977 147.025 120.939 148.388L124.12 150.812C124.789 149.935 125.657 149.195 126.76 148.6L124.859 145.08ZM120.92 148.412C119.938 149.743 119.223 151.247 118.762 152.905L122.616 153.975C122.956 152.753 123.467 151.697 124.139 150.788L120.92 148.412ZM118.765 152.895C118.309 154.507 118.089 156.225 118.089 158.04H122.089C122.089 156.548 122.27 155.2 122.614 153.985L118.765 152.895ZM118.089 158.04V180H122.089V158.04H118.089ZM120.089 178H110.409V182H120.089V178ZM147.301 178.36L148.295 176.624L147.301 178.36ZM139.541 170.48L137.787 171.441L137.793 171.451L139.541 170.48ZM139.501 146.6L141.273 147.527L141.276 147.521L139.501 146.6ZM147.061 138.48L146.039 136.761H146.039L147.061 138.48ZM169.661 138.76L168.542 140.418L168.55 140.423L168.558 140.428L169.661 138.76ZM176.661 147.6L174.803 148.341L176.661 147.6ZM178.381 161.08V163.08H180.242L180.376 161.224L178.381 161.08ZM168.821 161.08H166.821V163.08H168.821V161.08ZM168.821 157.56H170.821L170.821 157.549L168.821 157.56ZM166.341 147.28L167.939 146.077L166.341 147.28ZM149.861 147.72L151.43 148.961L151.436 148.953L149.861 147.72ZM149.861 168.56L148.3 169.809L149.861 168.56ZM164.381 170.6L165.422 172.308L165.429 172.303L164.381 170.6ZM168.381 166L168.96 164.086L167.302 163.584L166.569 165.154L168.381 166ZM177.901 168.88L179.742 169.662L180.613 167.611L178.48 166.966L177.901 168.88ZM170.221 177.96L169.164 176.263L169.158 176.266L170.221 177.96ZM143.941 161.08H141.941V163.08H143.941V161.08ZM143.941 153.8V151.8H141.941V153.8H143.941ZM173.661 153.8H175.661V151.8H173.661V153.8ZM173.661 161.08V163.08H175.661V161.08H173.661ZM158.821 179.2C154.744 179.2 151.257 178.32 148.295 176.624L146.307 180.096C149.959 182.186 154.152 183.2 158.821 183.2V179.2ZM148.295 176.624C145.308 174.914 142.981 172.553 141.29 169.509L137.793 171.451C139.835 175.127 142.681 178.019 146.307 180.096L148.295 176.624ZM141.295 169.519C139.638 166.493 138.781 162.966 138.781 158.88H134.781C134.781 163.541 135.764 167.747 137.787 171.441L141.295 169.519ZM138.781 158.88C138.781 154.417 139.638 150.654 141.273 147.527L137.729 145.673C135.738 149.479 134.781 153.903 134.781 158.88H138.781ZM141.276 147.521C142.927 144.342 145.193 141.919 148.084 140.199L146.039 136.761C142.476 138.881 139.702 141.871 137.726 145.679L141.276 147.521ZM148.084 140.199C150.963 138.486 154.334 137.6 158.261 137.6V133.6C153.709 133.6 149.613 134.634 146.039 136.761L148.084 140.199ZM158.261 137.6C162.42 137.6 165.811 138.574 168.542 140.418L170.78 137.102C167.271 134.733 163.063 133.6 158.261 133.6V137.6ZM168.558 140.428C171.334 142.263 173.421 144.871 174.803 148.341L178.519 146.859C176.862 142.702 174.281 139.417 170.764 137.092L168.558 140.428ZM174.803 148.341C176.186 151.809 176.744 155.987 176.386 160.936L180.376 161.224C180.766 155.826 180.176 151.017 178.519 146.859L174.803 148.341ZM178.381 159.08H168.821V163.08H178.381V159.08ZM170.821 161.08V157.56H166.821V161.08H170.821ZM170.821 157.549C170.794 152.708 169.954 148.753 167.939 146.077L164.744 148.483C165.982 150.127 166.795 153.025 166.821 157.571L170.821 157.549ZM167.939 146.077C165.828 143.274 162.582 142.04 158.661 142.04V146.04C161.727 146.04 163.601 146.966 164.744 148.483L167.939 146.077ZM158.661 142.04C154.279 142.04 150.684 143.424 148.286 146.487L151.436 148.953C152.879 147.11 155.15 146.04 158.661 146.04V142.04ZM148.293 146.479C145.981 149.4 144.981 153.478 144.981 158.4H148.981C148.981 153.935 149.901 150.893 151.43 148.961L148.293 146.479ZM144.981 158.4C144.981 163.04 145.997 166.932 148.3 169.809L151.423 167.311C149.885 165.388 148.981 162.507 148.981 158.4H144.981ZM148.3 169.809C150.675 172.779 154.107 174.16 158.261 174.16V170.16C155.056 170.16 152.887 169.141 151.423 167.311L148.3 169.809ZM158.261 174.16C160.932 174.16 163.347 173.572 165.422 172.308L163.341 168.892C162.002 169.708 160.337 170.16 158.261 170.16V174.16ZM165.429 172.303C167.524 171.014 169.109 169.169 170.194 166.846L166.569 165.154C165.786 166.831 164.705 168.052 163.333 168.897L165.429 172.303ZM167.802 167.914L177.322 170.794L178.48 166.966L168.96 164.086L167.802 167.914ZM176.06 168.098C174.562 171.627 172.268 174.328 169.164 176.263L171.279 179.657C175.108 177.272 177.934 173.919 179.742 169.662L176.06 168.098ZM169.158 176.266C166.044 178.221 162.615 179.2 158.821 179.2V183.2C163.348 183.2 167.518 182.019 171.285 179.654L169.158 176.266ZM145.941 161.08V153.8H141.941V161.08H145.941ZM143.941 155.8H173.661V151.8H143.941V155.8ZM171.661 153.8V161.08H175.661V153.8H171.661ZM173.661 159.08H143.941V163.08H173.661V159.08ZM188.285 179.44L187.314 181.188L187.322 181.193L187.33 181.197L188.285 179.44ZM183.365 174.68L181.616 175.649L181.621 175.658L181.626 175.667L183.365 174.68ZM182.765 162.56L184.609 163.333L184.614 163.323L182.765 162.56ZM185.965 158.24L187.245 159.776L187.254 159.77L187.262 159.762L185.965 158.24ZM191.565 155.24L190.95 153.337L190.938 153.341L190.926 153.345L191.565 155.24ZM197.645 153.72L197.266 151.756L197.261 151.757L197.645 153.72ZM205.245 152.48L205.517 154.461L205.525 154.46L205.533 154.459L205.245 152.48ZM213.845 151.2L214.835 152.938L213.545 149.223L213.845 151.2ZM210.405 153.16L208.405 153.142L208.374 156.619L211.395 154.898L210.405 153.16ZM208.405 146.56L206.964 147.947L208.405 146.56ZM195.885 145.8L196.779 147.589L195.885 145.8ZM192.085 150.48L191.486 152.388L193.375 152.981L193.987 151.099L192.085 150.48ZM183.285 147.72L181.365 147.159L180.816 149.042L182.686 149.628L183.285 147.72ZM189.365 138.92L188.181 137.308L188.174 137.313L189.365 138.92ZM211.645 137.48L210.853 139.317L210.859 139.319L211.645 137.48ZM218.165 143.64L216.373 144.528L216.378 144.537L216.382 144.547L218.165 143.64ZM219.565 148.32L217.575 148.519L217.575 148.522L219.565 148.32ZM219.805 180V182H221.805V180H219.805ZM211.365 180H209.365V182H211.365V180ZM211.365 170.64L212.836 169.285L209.365 165.516V170.64H211.365ZM212.765 172.16L214.462 173.219L215.268 171.926L214.236 170.805L212.765 172.16ZM205.925 179.04L206.898 180.787L206.904 180.784L205.925 179.04ZM203.725 172.36L204.619 174.149L203.725 172.36ZM207.405 169.52L205.869 168.24L205.859 168.251L205.851 168.262L207.405 169.52ZM209.285 166.36L207.436 165.596L207.407 165.669L207.383 165.743L209.285 166.36ZM210.125 162.16L208.127 162.06L208.127 162.076L208.126 162.092L210.125 162.16ZM210.245 158.28L210.815 156.363L208.245 155.599V158.28H210.245ZM213.205 159.16L213.513 161.136L213.775 157.243L213.205 159.16ZM205.725 160.36L205.396 158.387L205.725 160.36ZM200.365 161.36L200.75 163.322L200.767 163.319L200.784 163.316L200.365 161.36ZM196.405 162.36L195.786 160.458L195.759 160.467L195.732 160.477L196.405 162.36ZM191.765 165.6L190.062 164.552L190.047 164.576L190.033 164.601L191.765 165.6ZM191.965 170.88L190.284 171.964L190.293 171.977L190.301 171.989L191.965 170.88ZM194.285 172.8L193.429 174.607L193.438 174.612L193.447 174.616L194.285 172.8ZM196.205 179.2C193.331 179.2 191.038 178.659 189.24 177.683L187.33 181.197C189.852 182.567 192.839 183.2 196.205 183.2V179.2ZM189.256 177.692C187.388 176.654 186.027 175.319 185.104 173.693L181.626 175.667C182.943 177.988 184.862 179.826 187.314 181.188L189.256 177.692ZM185.114 173.711C184.194 172.05 183.725 170.213 183.725 168.16H179.725C179.725 170.854 180.349 173.364 181.616 175.649L185.114 173.711ZM183.725 168.16C183.725 166.304 184.034 164.706 184.609 163.333L180.921 161.787C180.109 163.721 179.725 165.856 179.725 168.16H183.725ZM184.614 163.323C185.179 161.953 186.047 160.775 187.245 159.776L184.685 156.704C183.003 158.105 181.737 159.807 180.916 161.797L184.614 163.323ZM187.262 159.762C188.463 158.74 190.087 157.849 192.204 157.135L190.926 153.345C188.456 154.178 186.347 155.287 184.668 156.718L187.262 159.762ZM192.18 157.143C193.819 156.614 195.765 156.125 198.029 155.683L197.261 151.757C194.885 152.222 192.778 152.746 190.95 153.337L192.18 157.143ZM198.024 155.684C200.331 155.238 202.828 154.831 205.517 154.461L204.973 150.499C202.222 150.876 199.653 151.295 197.266 151.756L198.024 155.684ZM205.533 154.459C208.284 154.058 211.155 153.631 214.145 153.177L213.545 149.223C210.562 149.675 207.699 150.102 204.957 150.501L205.533 154.459ZM212.855 149.462L209.415 151.422L211.395 154.898L214.835 152.938L212.855 149.462ZM212.405 153.178C212.434 149.936 211.72 147.12 209.846 145.173L206.964 147.947C207.81 148.826 208.429 150.411 208.405 153.142L212.405 153.178ZM209.846 145.173C207.927 143.179 204.96 142.44 201.525 142.44V146.44C204.543 146.44 206.163 147.115 206.964 147.947L209.846 145.173ZM201.525 142.44C199.255 142.44 197.07 142.972 194.991 144.011L196.779 147.589C198.327 146.815 199.902 146.44 201.525 146.44V142.44ZM194.991 144.011C192.626 145.193 191.042 147.221 190.183 149.861L193.987 151.099C194.568 149.313 195.517 148.22 196.779 147.589L194.991 144.011ZM192.684 148.572L183.884 145.812L182.686 149.628L191.486 152.388L192.684 148.572ZM185.205 148.281C186.152 145.035 187.929 142.474 190.556 140.527L188.174 137.313C184.828 139.793 182.551 143.098 181.365 147.159L185.205 148.281ZM190.549 140.532C193.114 138.648 196.706 137.6 201.525 137.6V133.6C196.157 133.6 191.642 134.766 188.181 137.308L190.549 140.532ZM201.525 137.6C205.149 137.6 208.244 138.191 210.853 139.317L212.437 135.643C209.233 134.262 205.581 133.6 201.525 133.6V137.6ZM210.859 139.319C213.355 140.386 215.171 142.102 216.373 144.528L219.957 142.752C218.332 139.471 215.801 137.081 212.431 135.641L210.859 139.319ZM216.382 144.547C217.05 145.859 217.441 147.18 217.575 148.519L221.555 148.121C221.369 146.26 220.826 144.461 219.948 142.733L216.382 144.547ZM217.575 148.522C217.727 150.018 217.805 151.669 217.805 153.48H221.805C221.805 151.557 221.723 149.769 221.555 148.118L217.575 148.522ZM217.805 153.48V180H221.805V153.48H217.805ZM219.805 178H211.365V182H219.805V178ZM213.365 180V170.64H209.365V180H213.365ZM209.894 171.995L211.294 173.515L214.236 170.805L212.836 169.285L209.894 171.995ZM211.068 171.101C209.259 174 207.207 176.027 204.946 177.296L206.904 180.784C209.87 179.12 212.377 176.56 214.462 173.219L211.068 171.101ZM204.952 177.293C202.742 178.523 199.862 179.2 196.205 179.2V183.2C200.335 183.2 203.934 182.437 206.898 180.787L204.952 177.293ZM198.125 175.52C200.542 175.52 202.731 175.093 204.619 174.149L202.831 170.571C201.625 171.174 200.081 171.52 198.125 171.52V175.52ZM204.619 174.149C206.371 173.273 207.841 172.16 208.959 170.778L205.851 168.262C205.156 169.12 204.172 169.9 202.831 170.571L204.619 174.149ZM208.941 170.8C209.977 169.558 210.764 168.283 211.187 166.977L207.383 165.743C207.166 166.41 206.7 167.242 205.869 168.24L208.941 170.8ZM211.134 167.124C211.747 165.639 212.064 163.997 212.124 162.228L208.126 162.092C208.079 163.47 207.837 164.628 207.436 165.596L211.134 167.124ZM212.122 162.26C212.203 160.644 212.245 159.314 212.245 158.28H208.245C208.245 159.219 208.207 160.476 208.127 162.06L212.122 162.26ZM209.675 160.197L212.635 161.077L213.775 157.243L210.815 156.363L209.675 160.197ZM212.897 157.184C209.986 157.638 207.485 158.039 205.396 158.387L206.054 162.333C208.125 161.988 210.611 161.589 213.513 161.136L212.897 157.184ZM205.396 158.387C203.296 158.737 201.478 159.076 199.946 159.404L200.784 163.316C202.239 163.004 203.994 162.676 206.054 162.333L205.396 158.387ZM199.98 159.397C198.427 159.703 197.026 160.055 195.786 160.458L197.024 164.262C198.077 163.919 199.317 163.604 200.75 163.322L199.98 159.397ZM195.732 160.477C194.49 160.92 193.378 161.459 192.43 162.114L194.7 165.406C195.298 164.994 196.08 164.6 197.078 164.243L195.732 160.477ZM192.43 162.114C191.462 162.781 190.655 163.588 190.062 164.552L193.468 166.648C193.729 166.225 194.121 165.806 194.7 165.406L192.43 162.114ZM190.033 164.601C189.43 165.645 189.165 166.815 189.165 168.04H193.165C193.165 167.399 193.3 166.942 193.497 166.599L190.033 164.601ZM189.165 168.04C189.165 169.458 189.525 170.787 190.284 171.964L193.646 169.796C193.338 169.32 193.165 168.756 193.165 168.04H189.165ZM190.301 171.989C191.067 173.138 192.143 173.998 193.429 174.607L195.141 170.993C194.4 170.642 193.93 170.222 193.629 169.771L190.301 171.989ZM193.447 174.616C194.821 175.25 196.406 175.52 198.125 175.52V171.52C196.804 171.52 195.829 171.31 195.123 170.984L193.447 174.616ZM253.139 180L253.506 181.966L255.139 181.661V180H253.139ZM244.739 180.68L244.797 178.681L244.787 178.681L244.778 178.68L244.739 180.68ZM237.419 179.2L236.606 181.028L236.616 181.032L236.625 181.036L237.419 179.2ZM232.499 174.68L230.731 175.615L230.737 175.626L230.743 175.638L232.499 174.68ZM230.939 168.96L232.938 168.905L230.939 168.96ZM230.859 124.8V122.8H228.859V124.8H230.859ZM240.459 124.8H242.459V122.8H240.459V124.8ZM240.499 166.36L238.499 166.401L238.5 166.421L238.5 166.442L240.499 166.36ZM241.339 169.56L243.054 168.531L243.049 168.523L243.044 168.515L241.339 169.56ZM245.939 172.24L246.115 170.248L245.939 172.24ZM253.139 171.92H255.139V169.601L252.845 169.942L253.139 171.92ZM223.019 144.36H221.019V146.36H223.019V144.36ZM223.019 136.8V134.8H221.019V136.8H223.019ZM253.139 136.8H255.139V134.8H253.139V136.8ZM253.139 144.36V146.36H255.139V144.36H253.139ZM252.771 178.034C250.05 178.543 247.393 178.756 244.797 178.681L244.681 182.679C247.578 182.764 250.52 182.524 253.506 181.966L252.771 178.034ZM244.778 178.68C242.277 178.631 240.099 178.18 238.212 177.364L236.625 181.036C239.058 182.087 241.76 182.622 244.7 182.68L244.778 178.68ZM238.231 177.372C236.468 176.589 235.162 175.385 234.255 173.722L230.743 175.638C232.076 178.081 234.05 179.891 236.606 181.028L238.231 177.372ZM234.267 173.745C233.412 172.127 232.982 170.519 232.938 168.905L228.939 169.015C229.002 171.294 229.613 173.5 230.731 175.615L234.267 173.745ZM232.938 168.905C232.885 166.981 232.859 164.8 232.859 162.36H228.859C228.859 164.827 228.886 167.046 228.939 169.015L232.938 168.905ZM232.859 162.36V124.8H228.859V162.36H232.859ZM230.859 126.8H240.459V122.8H230.859V126.8ZM238.459 124.8V161.8H242.459V124.8H238.459ZM238.459 161.8C238.459 163.543 238.472 165.077 238.499 166.401L242.498 166.319C242.472 165.03 242.459 163.524 242.459 161.8H238.459ZM238.5 166.442C238.563 167.975 238.897 169.404 239.634 170.605L243.044 168.515C242.767 168.063 242.541 167.358 242.497 166.278L238.5 166.442ZM239.624 170.589C240.96 172.817 243.116 173.998 245.762 174.232L246.115 170.248C244.548 170.109 243.637 169.503 243.054 168.531L239.624 170.589ZM245.762 174.232C248.063 174.436 250.626 174.315 253.433 173.898L252.845 169.942C250.265 170.325 248.028 170.417 246.115 170.248L245.762 174.232ZM251.139 171.92V180H255.139V171.92H251.139ZM225.019 144.36V136.8H221.019V144.36H225.019ZM223.019 138.8H253.139V134.8H223.019V138.8ZM251.139 136.8V144.36H255.139V136.8H251.139ZM253.139 142.36H223.019V146.36H253.139V142.36ZM283.204 177.44L282.154 179.142L282.162 179.147L283.204 177.44ZM273.724 166.88L271.924 167.753L271.929 167.762L273.724 166.88ZM273.724 135.52L271.929 134.638L271.924 134.647L273.724 135.52ZM283.204 125L284.246 126.707L284.254 126.702L283.204 125ZM314.604 126.2L313.401 127.798L313.407 127.802L314.604 126.2ZM323.924 139.6L324.455 141.528L326.459 140.976L325.83 138.995L323.924 139.6ZM314.204 142.28L312.287 142.851L312.846 144.729L314.735 144.208L314.204 142.28ZM308.484 133.48L307.242 135.048L307.252 135.055L308.484 133.48ZM288.324 132.88L287.21 131.219L287.202 131.224L288.324 132.88ZM282.524 140.2L280.677 139.433L280.673 139.441L282.524 140.2ZM280.564 151.2L278.564 151.187V151.2H280.564ZM282.484 162.24L280.631 162.994L280.635 163.003L280.639 163.013L282.484 162.24ZM288.324 169.52L289.437 167.859L288.324 169.52ZM308.484 168.92L307.242 167.352V167.352L308.484 168.92ZM314.204 160.12L314.735 158.192L312.85 157.672L312.288 159.545L314.204 160.12ZM323.924 162.8L325.83 163.405L326.459 161.424L324.455 160.872L323.924 162.8ZM314.604 176.24L315.801 177.842L315.807 177.838L314.604 176.24ZM298.004 179.2C292.538 179.2 287.982 178.013 284.246 175.733L282.162 179.147C286.639 181.88 291.949 183.2 298.004 183.2V179.2ZM284.254 175.738C280.481 173.411 277.573 170.181 275.519 165.998L271.929 167.762C274.301 172.592 277.713 176.403 282.154 179.142L284.254 175.738ZM275.523 166.007C273.491 161.819 272.444 156.9 272.444 151.2H268.444C268.444 157.393 269.583 162.928 271.924 167.753L275.523 166.007ZM272.444 151.2C272.444 145.5 273.491 140.581 275.523 136.393L271.924 134.647C269.583 139.472 268.444 145.007 268.444 151.2H272.444ZM275.519 136.402C277.572 132.22 280.478 129.007 284.246 126.707L282.162 123.293C277.716 126.006 274.302 129.806 271.929 134.638L275.519 136.402ZM284.254 126.702C287.988 124.398 292.542 123.2 298.004 123.2V119.2C291.945 119.2 286.632 120.535 282.154 123.298L284.254 126.702ZM298.004 123.2C304.298 123.2 309.385 124.774 313.401 127.798L315.807 124.602C310.969 120.959 304.989 119.2 298.004 119.2V123.2ZM313.407 127.802C317.475 130.841 320.348 134.948 322.018 140.205L325.83 138.995C323.926 132.999 320.586 128.172 315.801 124.598L313.407 127.802ZM323.392 137.672L313.672 140.352L314.735 144.208L324.455 141.528L323.392 137.672ZM316.121 141.709C314.9 137.612 312.783 134.303 309.716 131.905L307.252 135.055C309.571 136.87 311.267 139.428 312.287 142.851L316.121 141.709ZM309.726 131.912C306.598 129.435 302.633 128.28 298.004 128.28V132.28C301.961 132.28 304.983 133.258 307.242 135.048L309.726 131.912ZM298.004 128.28C293.837 128.28 290.198 129.216 287.21 131.219L289.437 134.541C291.623 133.077 294.437 132.28 298.004 132.28V128.28ZM287.202 131.224C284.286 133.198 282.117 135.964 280.677 139.433L284.371 140.967C285.544 138.143 287.241 136.028 289.445 134.536L287.202 131.224ZM280.673 139.441C279.275 142.849 278.592 146.78 278.564 151.187L282.564 151.213C282.589 147.194 283.212 143.791 284.374 140.959L280.673 139.441ZM278.564 151.2C278.564 155.612 279.233 159.558 280.631 162.994L284.336 161.486C283.174 158.629 282.564 155.215 282.564 151.2H278.564ZM280.639 163.013C282.083 166.462 284.27 169.211 287.21 171.181L289.437 167.859C287.204 166.362 285.497 164.258 284.329 161.467L280.639 163.013ZM287.21 171.181C290.198 173.184 293.837 174.12 298.004 174.12V170.12C294.437 170.12 291.623 169.323 289.437 167.859L287.21 171.181ZM298.004 174.12C302.633 174.12 306.598 172.965 309.726 170.488L307.242 167.352C304.983 169.142 301.961 170.12 298.004 170.12V174.12ZM309.726 170.488C312.782 168.067 314.898 164.766 316.119 160.695L312.288 159.545C311.269 162.941 309.572 165.506 307.242 167.352L309.726 170.488ZM313.672 162.048L323.392 164.728L324.455 160.872L314.735 158.192L313.672 162.048ZM322.018 162.195C320.348 167.453 317.473 171.576 313.401 174.642L315.807 177.838C320.587 174.238 323.926 169.4 325.83 163.405L322.018 162.195ZM313.407 174.638C309.391 177.637 304.302 179.2 298.004 179.2V183.2C304.986 183.2 310.963 181.456 315.801 177.842L313.407 174.638ZM338.066 178.28L339.099 176.568L338.066 178.28ZM330.546 170.24L328.766 171.151L328.77 171.159L328.774 171.167L330.546 170.24ZM330.626 146.48L328.86 145.542L330.626 146.48ZM338.186 138.48L337.164 136.761L338.186 138.48ZM360.746 138.52L361.779 136.808L360.746 138.52ZM368.266 146.6L366.491 147.522L366.494 147.527L368.266 146.6ZM368.226 170.28L366.457 169.347L366.454 169.353L368.226 170.28ZM360.706 178.32L361.729 180.039L361.739 180.032L360.706 178.32ZM357.946 168.32L356.33 167.142L357.946 168.32ZM357.906 148.4L356.31 149.605L356.317 149.614L357.906 148.4ZM342.986 146.4L344.126 148.043L344.131 148.04L342.986 146.4ZM339.306 151.24L341.17 151.966L341.173 151.958L339.306 151.24ZM340.946 168.44L339.35 169.645L339.358 169.655L339.365 169.664L340.946 168.44ZM349.386 179.2C345.376 179.2 341.971 178.3 339.099 176.568L337.033 179.992C340.615 182.153 344.756 183.2 349.386 183.2V179.2ZM339.099 176.568C336.193 174.814 333.939 172.409 332.318 169.312L328.774 171.167C330.727 174.898 333.486 177.852 337.033 179.992L339.099 176.568ZM332.327 169.329C330.732 166.211 329.906 162.585 329.906 158.4H325.906C325.906 163.122 326.841 167.389 328.766 171.151L332.327 169.329ZM329.906 158.4C329.906 154.137 330.757 150.497 332.392 147.418L328.86 145.542C326.869 149.29 325.906 153.596 325.906 158.4H329.906ZM332.392 147.418C334.039 144.318 336.306 141.926 339.209 140.199L337.164 136.761C333.613 138.874 330.84 141.815 328.86 145.542L332.392 147.418ZM339.209 140.199C342.088 138.486 345.459 137.6 349.386 137.6V133.6C344.834 133.6 340.738 134.634 337.164 136.761L339.209 140.199ZM349.386 137.6C353.426 137.6 356.844 138.501 359.713 140.232L361.779 136.808C358.196 134.645 354.04 133.6 349.386 133.6V137.6ZM359.713 140.232C362.615 141.983 364.869 144.399 366.491 147.522L370.041 145.678C368.09 141.921 365.331 138.95 361.779 136.808L359.713 140.232ZM366.494 147.527C368.109 150.613 368.946 154.219 368.946 158.4H372.946C372.946 153.674 371.996 149.414 370.038 145.673L366.494 147.527ZM368.946 158.4C368.946 162.605 368.097 166.236 366.457 169.347L369.995 171.213C371.982 167.444 372.946 163.155 372.946 158.4H368.946ZM366.454 169.353C364.833 172.449 362.579 174.854 359.673 176.608L361.739 180.032C365.287 177.892 368.046 174.938 369.998 171.207L366.454 169.353ZM359.684 176.601C356.81 178.311 353.401 179.2 349.386 179.2V183.2C354.011 183.2 358.149 182.169 361.729 180.039L359.684 176.601ZM349.386 174.16C353.713 174.16 357.237 172.687 359.562 169.498L356.33 167.142C354.922 169.073 352.74 170.16 349.386 170.16V174.16ZM359.562 169.498C361.74 166.511 362.746 162.758 362.746 158.4H358.746C358.746 162.149 357.885 165.009 356.33 167.142L359.562 169.498ZM362.746 158.4C362.746 153.924 361.733 150.117 359.496 147.186L356.317 149.614C357.866 151.643 358.746 154.503 358.746 158.4H362.746ZM359.502 147.195C357.152 144.082 353.656 142.64 349.386 142.64V146.64C352.69 146.64 354.874 147.704 356.31 149.605L359.502 147.195ZM349.386 142.64C346.498 142.64 343.936 143.297 341.841 144.76L344.131 148.04C345.397 147.156 347.101 146.64 349.386 146.64V142.64ZM341.846 144.757C339.828 146.156 338.367 148.11 337.44 150.522L341.173 151.958C341.845 150.21 342.837 148.937 344.126 148.043L341.846 144.757ZM337.443 150.514C336.534 152.846 336.106 155.488 336.106 158.4H340.106C340.106 155.872 340.478 153.741 341.17 151.966L337.443 150.514ZM336.106 158.4C336.106 162.878 337.12 166.692 339.35 169.645L342.542 167.235C340.986 165.175 340.106 162.296 340.106 158.4H336.106ZM339.365 169.664C341.735 172.726 345.187 174.16 349.386 174.16V170.16C346.172 170.16 343.998 169.114 342.528 167.216L339.365 169.664ZM384.279 178.2L385.399 176.543L384.279 178.2ZM377.399 170.04L375.591 170.895L377.399 170.04ZM377.399 146.72L375.597 145.854L375.594 145.86L377.399 146.72ZM384.399 138.6L385.495 140.273L385.505 140.266L384.399 138.6ZM405.359 138.6L404.19 140.222L404.198 140.229L404.207 140.235L405.359 138.6ZM411.719 170.04L413.564 170.812L413.566 170.807L411.719 170.04ZM405.279 178.2L406.427 179.838L405.279 178.2ZM402.399 170.8L403.595 172.403L403.599 172.4L402.399 170.8ZM405.879 165.8L403.992 165.139L403.988 165.15L403.984 165.16L405.879 165.8ZM405.879 151L403.984 151.64L403.989 151.654L403.994 151.668L405.879 151ZM402.479 146.04L401.253 147.62L401.262 147.627L401.271 147.633L402.479 146.04ZM390.079 146.16L391.275 147.763L391.283 147.757L391.291 147.751L390.079 146.16ZM386.359 151.28L388.232 151.982L388.235 151.975L386.359 151.28ZM386.319 165.6L384.436 166.274L384.441 166.288L384.447 166.302L386.319 165.6ZM389.959 170.68L388.739 172.264H388.739L389.959 170.68ZM406.999 180H404.999V182H406.999V180ZM406.999 149.68H408.999V147.68H406.999V149.68ZM405.799 149.68H403.799V151.68H405.799V149.68ZM405.799 122.4V120.4H403.799V122.4H405.799ZM415.519 122.4H417.519V120.4H415.519V122.4ZM415.519 180V182H417.519V180H415.519ZM394.679 179.2C391.059 179.2 387.992 178.295 385.399 176.543L383.16 179.857C386.487 182.105 390.354 183.2 394.679 183.2V179.2ZM385.399 176.543C382.756 174.757 380.691 172.323 379.207 169.185L375.591 170.895C377.361 174.637 379.883 177.643 383.16 179.857L385.399 176.543ZM379.207 169.185C377.723 166.046 376.959 162.464 376.959 158.4H372.959C372.959 162.976 373.822 167.154 375.591 170.895L379.207 169.185ZM376.959 158.4C376.959 154.278 377.725 150.686 379.205 147.58L375.594 145.86C373.821 149.581 372.959 153.775 372.959 158.4H376.959ZM379.202 147.586C380.707 144.454 382.805 142.035 385.495 140.273L383.304 136.927C379.967 139.112 377.398 142.106 375.597 145.854L379.202 147.586ZM385.505 140.266C388.15 138.511 391.301 137.6 395.039 137.6V133.6C390.618 133.6 386.675 134.689 383.293 136.934L385.505 140.266ZM395.039 137.6C398.812 137.6 401.821 138.514 404.19 140.222L406.529 136.978C403.351 134.686 399.48 133.6 395.039 133.6V137.6ZM404.207 140.235C406.673 141.972 408.566 144.367 409.874 147.492L413.564 145.948C411.992 142.193 409.646 139.174 406.512 136.965L404.207 140.235ZM409.874 147.492C411.197 150.651 411.879 154.275 411.879 158.4H415.879C415.879 153.832 415.122 149.669 413.564 145.948L409.874 147.492ZM411.879 158.4C411.879 162.468 411.198 166.082 409.872 169.273L413.566 170.807C415.121 167.065 415.879 162.919 415.879 158.4H411.879ZM409.874 169.268C408.57 172.385 406.653 174.794 404.131 176.562L406.427 179.838C409.612 177.606 411.989 174.575 413.564 170.812L409.874 169.268ZM404.131 176.562C401.68 178.281 398.569 179.2 394.679 179.2V183.2C399.216 183.2 403.172 182.119 406.427 179.838L404.131 176.562ZM396.159 174.56C399.04 174.56 401.581 173.905 403.595 172.403L401.204 169.197C400.071 170.041 398.452 170.56 396.159 170.56V174.56ZM403.599 172.4C405.563 170.928 406.942 168.906 407.774 166.44L403.984 165.16C403.377 166.961 402.436 168.272 401.199 169.2L403.599 172.4ZM407.767 166.461C408.603 164.071 408.999 161.373 408.999 158.4H404.999C404.999 161.027 404.649 163.262 403.992 165.139L407.767 166.461ZM408.999 158.4C408.999 155.403 408.604 152.701 407.764 150.332L403.994 151.668C404.648 153.512 404.999 155.743 404.999 158.4H408.999ZM407.774 150.36C406.947 147.91 405.603 145.899 403.688 144.447L401.271 147.633C402.45 148.528 403.371 149.823 403.984 151.64L407.774 150.36ZM403.705 144.46C401.727 142.925 399.262 142.24 396.479 142.24V146.24C398.603 146.24 400.138 146.755 401.253 147.62L403.705 144.46ZM396.479 142.24C393.556 142.24 390.968 142.969 388.867 144.569L391.291 147.751C392.551 146.791 394.23 146.24 396.479 146.24V142.24ZM388.883 144.557C386.864 146.064 385.404 148.101 384.484 150.585L388.235 151.975C388.915 150.139 389.935 148.763 391.275 147.763L388.883 144.557ZM384.487 150.578C383.591 152.966 383.159 155.582 383.159 158.4H387.159C387.159 155.992 387.528 153.861 388.232 151.982L384.487 150.578ZM383.159 158.4C383.159 161.236 383.575 163.868 384.436 166.274L388.202 164.926C387.517 163.012 387.159 160.844 387.159 158.4H383.159ZM384.447 166.302C385.363 168.745 386.785 170.759 388.739 172.264L391.18 169.096C389.88 168.094 388.876 166.721 388.192 164.898L384.447 166.302ZM388.739 172.264C390.787 173.842 393.311 174.56 396.159 174.56V170.56C393.994 170.56 392.385 170.024 391.18 169.096L388.739 172.264ZM408.999 180V149.68H404.999V180H408.999ZM406.999 147.68H405.799V151.68H406.999V147.68ZM407.799 149.68V122.4H403.799V149.68H407.799ZM405.799 124.4H415.519V120.4H405.799V124.4ZM413.519 122.4V180H417.519V122.4H413.519ZM415.519 178H406.999V182H415.519V178ZM432.454 178.36L433.448 176.624L432.454 178.36ZM424.694 170.48L422.94 171.441L422.946 171.451L424.694 170.48ZM424.654 146.6L426.427 147.527L426.429 147.521L424.654 146.6ZM432.214 138.48L431.192 136.761L432.214 138.48ZM454.814 138.76L453.695 140.418L453.703 140.423L453.712 140.428L454.814 138.76ZM461.814 147.6L459.957 148.341H459.957L461.814 147.6ZM463.534 161.08V163.08H465.395L465.529 161.224L463.534 161.08ZM453.974 161.08H451.974V163.08H453.974V161.08ZM453.974 157.56H455.974L455.974 157.549L453.974 157.56ZM451.494 147.28L453.092 146.077L451.494 147.28ZM435.014 147.72L436.583 148.961L436.589 148.953L435.014 147.72ZM435.014 168.56L433.453 169.809L435.014 168.56ZM449.534 170.6L450.575 172.308L450.583 172.303L449.534 170.6ZM453.534 166L454.113 164.086L452.455 163.584L451.722 165.154L453.534 166ZM463.054 168.88L464.895 169.662L465.766 167.611L463.633 166.966L463.054 168.88ZM455.374 177.96L454.317 176.263L454.311 176.266L455.374 177.96ZM429.094 161.08H427.094V163.08H429.094V161.08ZM429.094 153.8V151.8H427.094V153.8H429.094ZM458.814 153.8H460.814V151.8H458.814V153.8ZM458.814 161.08V163.08H460.814V161.08H458.814ZM443.974 179.2C439.897 179.2 436.41 178.32 433.448 176.624L431.461 180.096C435.112 182.186 439.305 183.2 443.974 183.2V179.2ZM433.448 176.624C430.461 174.914 428.134 172.553 426.443 169.509L422.946 171.451C424.988 175.127 427.835 178.019 431.461 180.096L433.448 176.624ZM426.449 169.519C424.791 166.493 423.934 162.966 423.934 158.88H419.934C419.934 163.541 420.917 167.747 422.94 171.441L426.449 169.519ZM423.934 158.88C423.934 154.417 424.791 150.654 426.427 147.527L422.882 145.673C420.891 149.479 419.934 153.903 419.934 158.88H423.934ZM426.429 147.521C428.08 144.342 430.346 141.919 433.237 140.199L431.192 136.761C427.629 138.881 424.856 141.871 422.879 145.679L426.429 147.521ZM433.237 140.199C436.116 138.486 439.487 137.6 443.414 137.6V133.6C438.862 133.6 434.766 134.634 431.192 136.761L433.237 140.199ZM443.414 137.6C447.573 137.6 450.964 138.574 453.695 140.418L455.934 137.102C452.424 134.733 448.216 133.6 443.414 133.6V137.6ZM453.712 140.428C456.488 142.263 458.574 144.871 459.957 148.341L463.672 146.859C462.015 142.702 459.435 139.417 455.917 137.092L453.712 140.428ZM459.957 148.341C461.339 151.809 461.897 155.987 461.54 160.936L465.529 161.224C465.919 155.826 465.33 151.017 463.672 146.859L459.957 148.341ZM463.534 159.08H453.974V163.08H463.534V159.08ZM455.974 161.08V157.56H451.974V161.08H455.974ZM455.974 157.549C455.947 152.708 455.107 148.753 453.092 146.077L449.897 148.483C451.135 150.127 451.949 153.025 451.974 157.571L455.974 157.549ZM453.092 146.077C450.981 143.274 447.735 142.04 443.814 142.04V146.04C446.881 146.04 448.754 146.966 449.897 148.483L453.092 146.077ZM443.814 142.04C439.432 142.04 435.837 143.424 433.439 146.487L436.589 148.953C438.032 147.11 440.303 146.04 443.814 146.04V142.04ZM433.446 146.479C431.134 149.4 430.134 153.478 430.134 158.4H434.134C434.134 153.935 435.054 150.893 436.583 148.961L433.446 146.479ZM430.134 158.4C430.134 163.04 431.15 166.932 433.453 169.809L436.576 167.311C435.038 165.388 434.134 162.507 434.134 158.4H430.134ZM433.453 169.809C435.828 172.779 439.26 174.16 443.414 174.16V170.16C440.209 170.16 438.04 169.141 436.576 167.311L433.453 169.809ZM443.414 174.16C446.085 174.16 448.5 173.572 450.575 172.308L448.494 168.892C447.155 169.708 445.49 170.16 443.414 170.16V174.16ZM450.583 172.303C452.677 171.014 454.263 169.169 455.347 166.846L451.722 165.154C450.939 166.831 449.858 168.052 448.486 168.897L450.583 172.303ZM452.955 167.914L462.475 170.794L463.633 166.966L454.113 164.086L452.955 167.914ZM461.214 168.098C459.715 171.627 457.421 174.328 454.317 176.263L456.432 179.657C460.261 177.272 463.087 173.919 464.895 169.662L461.214 168.098ZM454.311 176.266C451.198 178.221 447.768 179.2 443.974 179.2V183.2C448.501 183.2 452.671 182.019 456.438 179.654L454.311 176.266ZM431.094 161.08V153.8H427.094V161.08H431.094ZM429.094 155.8H458.814V151.8H429.094V155.8ZM456.814 153.8V161.08H460.814V153.8H456.814ZM458.814 159.08H429.094V163.08H458.814V159.08ZM484.619 122.4V120.4H483.083L482.687 121.885L484.619 122.4ZM494.299 122.4L496.232 122.915L496.903 120.4H494.299V122.4ZM478.939 180V182H480.476L480.872 180.515L478.939 180ZM469.259 180L467.327 179.485L466.656 182H469.259V180ZM484.619 124.4H494.299V120.4H484.619V124.4ZM492.367 121.885L477.007 179.485L480.872 180.515L496.232 122.915L492.367 121.885ZM478.939 178H469.259V182H478.939V178ZM471.192 180.515L486.552 122.915L482.687 121.885L467.327 179.485L471.192 180.515ZM517.229 174L515.815 175.414L517.227 176.827L518.641 175.416L517.229 174ZM511.269 168.04L509.876 166.605L508.419 168.019L509.855 169.454L511.269 168.04ZM524.909 154.8L526.302 156.235L527.78 154.8L526.302 153.365L524.909 154.8ZM511.269 141.56L509.855 140.146L508.419 141.581L509.876 142.995L511.269 141.56ZM517.229 135.6L518.641 134.184L517.227 132.773L515.815 134.186L517.229 135.6ZM536.469 154.8L537.882 156.216L539.3 154.8L537.882 153.384L536.469 154.8ZM518.643 172.586L512.683 166.626L509.855 169.454L515.815 175.414L518.643 172.586ZM512.662 169.475L526.302 156.235L523.516 153.365L509.876 166.605L512.662 169.475ZM526.302 153.365L512.662 140.125L509.876 142.995L523.516 156.235L526.302 153.365ZM512.683 142.974L518.643 137.014L515.815 134.186L509.855 140.146L512.683 142.974ZM515.816 137.016L535.056 156.216L537.882 153.384L518.641 134.184L515.816 137.016ZM535.056 153.384L515.816 172.584L518.641 175.416L537.882 156.216L535.056 153.384Z" fill="#8257E5"/>
</g>
<defs>
<filter id="filter0_d_326_85" x="37.3999" y="26.2" width="473.054" height="68" filterUnits="userSpaceOnUse" color-interpolation-filters="sRGB">
<feFlood flood-opacity="0" result="BackgroundImageFix"/>
<feColorMatrix in="SourceAlpha" type="matrix" values="0 0 0 0 0 0 0 0 0 0 0 0 0 0 0 0 0 0 127 0" result="hardAlpha"/>
<feOffset dy="4"/>
<feGaussianBlur stdDeviation="2"/>
<feComposite in2="hardAlpha" operator="out"/>
<feColorMatrix type="matrix" values="0 0 0 0 0 0 0 0 0 0 0 0 0 0 0 0 0 0 0.25 0"/>
<feBlend mode="normal" in2="BackgroundImageFix" result="effect1_dropShadow_326_85"/>
<feBlend mode="normal" in="SourceGraphic" in2="effect1_dropShadow_326_85" result="shape"/>
</filter>
<filter id="filter1_d_326_85" x="7.19995" y="121.2" width="533.269" height="68" filterUnits="userSpaceOnUse" color-interpolation-filters="sRGB">
<feFlood flood-opacity="0" result="BackgroundImageFix"/>
<feColorMatrix in="SourceAlpha" type="matrix" values="0 0 0 0 0 0 0 0 0 0 0 0 0 0 0 0 0 0 127 0" result="hardAlpha"/>
<feOffset dy="4"/>
<feGaussianBlur stdDeviation="2"/>
<feComposite in2="hardAlpha" operator="out"/>
<feColorMatrix type="matrix" values="0 0 0 0 0 0 0 0 0 0 0 0 0 0 0 0 0 0 0.25 0"/>
<feBlend mode="normal" in2="BackgroundImageFix" result="effect1_dropShadow_326_85"/>
<feBlend mode="normal" in="SourceGraphic" in2="effect1_dropShadow_326_85" result="shape"/>
</filter>
</defs>
</svg>
